#tb 0: 1/12
#media_type 0: video
#codec_id 0: rawvideo
#dimensions 0: 320x240
#sar 0: 0/1
0,          0,          0,        1,   230400, 0x3bd1d731
0,          1,          1,        1,   230400, 0x9d0774c3
0,          2,          2,        1,   230400, 0xa0faafe2
0,          3,          3,        1,   230400, 0x38325309
0,          4,          4,        1,   230400, 0xe90a1b1e
0,          5,          5,        1,   230400, 0x8efbc904
0,          6,          6,        1,   230400, 0x0a8476f3
0,          7,          7,        1,   230400, 0x5d94587d
0,          8,          8,        1,   230400, 0x280b905d
0,          9,          9,        1,   230400, 0x07178dd9
0,         10,         10,        1,   230400, 0xf52b8db4
0,         11,         11,        1,   230400, 0x2b70c1dc
0,         12,         12,        1,   230400, 0x8157a6e9
0,         13,         13,        1,   230400, 0xd4a3c357
0,         14,         14,        1,   230400, 0x703861bb
0,         15,         15,        1,   230400, 0xa13cf75e
0,         16,         16,        1,   230400, 0x140e487f
0,         17,         17,        1,   230400, 0x05cca333
0,         18,         18,        1,   230400, 0x0506ee2b
0,         19,         19,        1,   230400, 0xe3e13466
0,         20,         20,        1,   230400, 0x8a24118c
0,         21,         21,        1,   230400, 0x22050962
0,         22,         22,        1,   230400, 0x0f5c8a0d
0,         23,         23,        1,   230400, 0x3475df44
0,         24,         24,        1,   230400, 0x65354e06
0,         25,         25,        1,   230400, 0xb9a01978
0,         26,         26,        1,   230400, 0x15207ee1
0,         27,         27,        1,   230400, 0x3b214f0b
0,         28,         28,        1,   230400, 0xf9461bbb
0,         29,         29,        1,   230400, 0x1469290f
0,         30,         30,        1,   230400, 0x8ddfd514
0,         31,         31,        1,   230400, 0x1bffa6a1
0,         32,         32,        1,   230400, 0x5a04d712
0,         33,         33,        1,   230400, 0xaa8de439
0,         34,         34,        1,   230400, 0x610c5439
0,         35,         35,        1,   230400, 0xd02d3e7c
